<svg width="71" height="24" xmlns="http://www.w3.org/2000/svg" xmlns:xlink="http://www.w3.org/1999/xlink">
    <defs>
        <path id="a" d="M0 .218h70.802v22.23H0z"/>
    </defs>
    <g fill="none" fill-rule="evenodd">
        <g transform="translate(0 .33)">
            <mask id="b" fill="#fff">
                <use xlink:href="#a"/>
            </mask>
            <path d="m64.503 14.687 6.3-3.784L48.89 6.369l-3.282 4.523L45.587.387 41.83 2.632H29.068L25.078.218V10.73L21.912 6.37 0 10.903l6.3 3.784-2.837.79s4.66 2.178 5.985 2.794l-1.946.657 5.65 2.423 3.333-1.37 3.438 1.482 7.418-3.538 8.11 4.523 8.031-4.478 7.398 3.493 3.438-1.482 3.332 1.37 5.65-2.423-1.946-.657c1.326-.616 5.985-2.794 5.985-2.794l-2.836-.79z" fill="#FEFEFE" mask="url(#b)"/>
        </g>
        <path d="M39.762 9.873a.675.675 0 0 0 .963 0 .705.705 0 0 0 .082-.879l-1.184.656a.703.703 0 0 0 .139.223M24.49 12.062 8.605 17l2.274 1.078 14.286-5.006zM22.52 9.27 5.487 13.307l2.246 1.323 15.527-4.333zM25.164 14.875 11.76 19.969l1.727.764 11.675-4.773zM19.996 20.737l5.172-2.325V17.38l-6.57 2.755zM45.638 13.072l14.286 5.006L62.198 17l-15.886-4.939zM48.282 9.27l-.74 1.026 15.528 4.333 2.246-1.323zM45.64 15.96l11.675 4.773 1.727-.764-13.404-5.094zM45.634 18.412l5.172 2.324 1.399-.6-6.57-2.755zM34.444 10.58l.931-.924.927.924 6.47-3.605 1.902-2.928v-1.96l-6.48 3.873.337 1.438-3.156 1.783-3.162-1.784.342-1.438-6.483-3.872v1.96l1.902 2.928z" fill="#1A1A1A"/>
        <path fill="#1A1A1A" d="m42.832 12.527-5.908 2.559-1.473 1.939-1.478-1.94-5.849-2.488-.759-3.873-1.395-1.42v4.569l1.728 2.56 7.75 4.262 3.238-1.743 4.203-2.37 1.781-2.58.022-4.431-1.172 1.52z"/>
        <path fill="#1A1A1A" d="m35.45 10.775-.63.624-.578.95 1.208 2.344 1.205-2.344-.576-.947zM25.965 13.57v2.874l2.581 1.439v-1.967l-1.511-.815zM42.106 16.045v1.924l2.58-1.438V13.7l-1.07 1.53zM41.436 8.647c.166.233.262.519.262.825 0 .396-.159.753-.414 1.01a1.427 1.427 0 0 1-2.01.002 1.41 1.41 0 0 1-.3-.476l-1.582.875 1.41 1.68 3.297-1.027.709-3.648-1.372.759z"/>
        <path d="M40.246 10.075a.669.669 0 0 0 .48-.203.705.705 0 0 0 .197-.494.706.706 0 0 0-.127-.409l-1.193.649a.675.675 0 0 0 .643.458M29.942 9.378c0 .194.076.369.198.494a.669.669 0 0 0 1.102-.223l-1.185-.655a.701.701 0 0 0-.115.384" fill="#1A1A1A"/>
        <path d="M31.89 10.008a1.407 1.407 0 0 1-.3.475 1.422 1.422 0 0 1-2.161-1.836l-1.372-.759.708 3.648 3.298 1.028 1.41-1.681-1.582-.875z" fill="#1A1A1A"/>
        <path d="M30.62 10.075a.677.677 0 0 0 .642-.457l-1.193-.649a.706.706 0 0 0-.127.41c0 .193.075.368.198.493a.668.668 0 0 0 .48.203" fill="#1A1A1A"/>
    </g>
</svg>
